<?xml version="1.0" standalone="no"?>
<!DOCTYPE svg PUBLIC "-//W3C//DTD SVG 20010904//EN"
 "http://www.w3.org/TR/2001/REC-SVG-20010904/DTD/svg10.dtd">
<svg version="1.0" xmlns="http://www.w3.org/2000/svg"
 width="700.000000pt" height="700.000000pt" viewBox="0 0 700.000000 700.000000"
 preserveAspectRatio="xMidYMid meet">
<metadata>
Created by potrace 1.11, written by Peter Selinger 2001-2013
</metadata>
<g transform="translate(0.000000,700.000000) scale(0.100000,-0.100000)"
fill="#000000" stroke="none">
<path d="M3340 6994 c-14 -2 -59 -9 -100 -15 -789 -113 -1400 -767 -1469
-1569 l-6 -75 -65 5 c-98 6 -297 5 -362 -3 -198 -24 -429 -102 -593 -201 -171
-103 -376 -295 -480 -451 -132 -196 -219 -423 -252 -658 -10 -68 -10 -303 0
-392 22 -202 112 -446 232 -631 223 -344 574 -581 984 -665 70 -15 152 -22
301 -25 113 -3 211 -6 219 -7 13 -2 15 -52 17 -327 1 -350 3 -360 59 -455 57
-98 177 -178 291 -192 32 -5 310 -8 617 -7 306 0 558 -2 558 -5 1 -3 2 -210 3
-458 l1 -453 -807 -2 -806 -3 -44 -30 c-121 -86 -121 -254 0 -340 l44 -30
1803 -2 c1374 -2 1811 0 1832 9 51 21 93 59 115 101 41 80 18 194 -49 247 -66
52 -39 50 -884 50 -434 0 -790 3 -790 8 -4 25 -3 902 1 903 3 1 271 3 595 4
649 3 631 1 740 67 82 49 162 161 181 253 4 22 8 178 9 347 0 169 4 311 9 315
4 4 22 9 39 9 135 6 415 67 522 114 206 89 321 153 455 253 110 82 251 220
337 327 247 312 391 712 396 1100 2 133 -8 314 -18 343 -3 7 -6 23 -9 37 -56
332 -248 706 -484 945 -271 275 -625 471 -957 529 -16 3 -41 8 -55 11 -79 16
-156 23 -290 25 l-115 1 -30 61 c-79 162 -235 363 -388 500 -254 226 -549 362
-917 423 -43 7 -355 14 -390 9z m360 -418 c14 -3 50 -11 80 -17 379 -77 745
-366 906 -714 89 -196 93 -202 136 -231 39 -26 51 -29 118 -27 192 3 347 2
370 -1 14 -2 48 -7 75 -11 104 -14 283 -71 398 -127 189 -92 398 -263 515
-423 29 -38 55 -75 59 -80 73 -97 175 -349 209 -517 19 -95 27 -364 14 -448
-28 -186 -68 -315 -139 -460 -167 -336 -475 -605 -833 -724 -42 -14 -88 -27
-102 -30 -15 -3 -34 -7 -44 -10 -18 -6 -40 -9 -127 -21 -27 -3 -62 -8 -77 -10
-23 -4 -28 0 -38 33 -7 20 -18 47 -25 58 -12 19 -10 30 13 85 l26 64 1 510 c2
553 -1 583 -52 678 -52 94 -159 172 -273 198 -49 12 -2716 16 -2802 5 -153
-19 -307 -169 -336 -326 -5 -25 -8 -274 -7 -555 l1 -510 25 -60 24 -60 -24
-62 -25 -63 -200 4 c-209 4 -260 11 -386 53 -370 122 -645 423 -741 808 -24
97 -32 310 -15 410 26 154 103 342 195 472 58 82 173 200 240 245 25 18 48 35
51 40 12 16 202 107 268 127 241 73 487 73 700 0 113 -39 196 -20 261 58 32
39 47 86 43 138 -24 347 12 547 145 810 185 364 566 632 988 694 63 9 343 7
385 -3z m251 -2753 c1 -71 1 -131 0 -136 -1 -4 9 -27 20 -52 23 -49 82 -105
111 -105 9 0 19 -4 23 -9 9 -16 115 -3 149 18 88 55 107 104 107 277 l0 134
233 0 232 0 0 -447 -1 -448 -1326 -3 -1325 -2 0 450 0 450 888 0 888 0 1 -127z
m-1 -1311 c0 -147 9 -189 52 -238 37 -42 70 -60 126 -69 83 -12 165 30 207
106 23 42 25 57 27 187 l1 141 231 -2 231 -2 0 -447 c1 -445 1 -448 -20 -449
-90 -4 -2619 -3 -2624 1 -4 3 -7 206 -7 452 l0 446 888 0 888 0 0 -126z"/>
</g>
</svg>
